<?xml version="1.0" encoding="UTF-8" standalone="no"?>
<svg width="19px" height="19px" viewBox="0 0 19 19" version="1.1" xmlns="http://www.w3.org/2000/svg" xmlns:xlink="http://www.w3.org/1999/xlink">
    <!-- Generator: Sketch 3.8.3 (29802) - http://www.bohemiancoding.com/sketch -->
    <title>AnnouncementEvent</title>
    <desc>Created with Sketch.</desc>
    <defs></defs>
    <g id="Page-1" stroke="none" stroke-width="1" fill="none" fill-rule="evenodd">
        <g id="Users" transform="translate(-546.000000, -486.000000)">
            <g id="Base-Site-Copy" transform="translate(-10.000000, 0.000000)">
                <g id="Content" transform="translate(243.000000, 62.000000)">
                    <g id="Main-Content-Pane" transform="translate(287.000000, 223.000000)">
                        <g id="Timeline-Group" transform="translate(26.000000, 131.000000)">
                            <g id="AnnouncementEvent" transform="translate(0.000000, 70.000000)">
                                <circle id="Oval-8-Copy" fill="#50E3C2" cx="9.5" cy="9.5" r="9.5"></circle>
                                <path d="M14.25,12.8 L11.625,10.9666667 L11.625,6.56666667 L14.25,4.73333333 L14.25,12.8 L14.25,12.8 Z M10.875,10.6 L9.75,10.6 L9.75,6.93333333 L10.875,6.93333333 L10.875,10.6 L10.875,10.6 Z M9,10.6 L6,10.6 C5.2545,10.6 3.75,10.3866 3.75,8.76666667 C3.75,7.14673333 5.22975,6.9095 6,6.93333333 L9,6.93333333 L9,10.6 L9,10.6 Z M7.125,13.9 C7.125,14.1027667 6.957,14.2666667 6.75,14.2666667 L6.375,14.2666667 C6.168,14.2666667 6,14.1027667 6,13.9 L6,11.3333333 L7.125,11.3333333 L7.125,13.9 L7.125,13.9 Z M14.25,4 L10.875,6.2 L6,6.2 C4.34325,6.2 3,7.14673333 3,8.76666667 C3,10.1354333 3.95325,11.0909667 5.25,11.3333333 C5.266875,11.4323333 5.25,14.2666667 5.25,14.2666667 C5.25,14.6714667 5.586,15 6,15 L7.125,15 C7.539,15 7.875,14.6714667 7.875,14.2666667 L7.875,11.3333333 L10.875,11.3333333 L14.25,13.5333333 C14.664,13.5333333 15,13.2048 15,12.8 L15,4.73333333 C15,4.32853333 14.664,4 14.25,4 L14.25,4 Z" id="Fill-180" fill="#FFFFFF"></path>
                            </g>
                        </g>
                    </g>
                </g>
            </g>
        </g>
    </g>
</svg>