<?xml version="1.0" encoding="UTF-8" standalone="no"?>
<svg width="19px" height="19px" viewBox="0 0 19 19" version="1.1" xmlns="http://www.w3.org/2000/svg" xmlns:xlink="http://www.w3.org/1999/xlink">
    <!-- Generator: Sketch 3.8.3 (29802) - http://www.bohemiancoding.com/sketch -->
    <title>FunnelEvent</title>
    <desc>Created with Sketch.</desc>
    <defs></defs>
    <g id="Page-1" stroke="none" stroke-width="1" fill="none" fill-rule="evenodd">
        <g id="Users" transform="translate(-546.000000, -766.000000)">
            <g id="Base-Site-Copy" transform="translate(-10.000000, 0.000000)">
                <g id="Content" transform="translate(243.000000, 62.000000)">
                    <g id="Main-Content-Pane" transform="translate(287.000000, 223.000000)">
                        <g id="Timeline-Group" transform="translate(26.000000, 131.000000)">
                            <g id="FunnelEvent" transform="translate(0.000000, 350.000000)">
                                <circle id="Oval-8-Copy" fill="#2A7AD7" cx="9.5" cy="9.5" r="9.5"></circle>
                                <g id="funnel" transform="translate(2.000000, 2.000000)" fill="#FFFFFF">
                                    <path d="M7.49746241,0.988597909 C3.90220608,0.988597909 0.989,2.10879074 0.989,3.490634 C0.989,3.75572472 1.09730205,4.01112005 1.29607363,4.25090894 L1.294302,4.25115914 C2.22098302,5.46764909 5.63622966,9.77699967 5.63622966,10.9967423 L5.63622966,13.7177065 C5.63622966,14.4272839 6.47531642,15 7.49499373,15 C8.51467104,15 9.35375781,14.4272839 9.35375781,13.7177065 L9.35375781,13.7177065 L9.35375781,11.1190918 C9.35375781,11.080279 9.35399015,11.0396522 9.35399015,10.9967423 C9.35399015,9.77699967 12.7227677,5.53704931 13.7392793,4.180633 L13.7392793,4.18057045 C13.9135384,3.96142336 14,3.72995375 14,3.490634 C14,2.10879074 11.0927187,0.988597909 7.49746241,0.988597909 L7.49746241,0.988597909 Z M7.50016342,4.99185565 C4.82650556,4.99185565 2.38530938,4.30379573 2.38530938,3.490634 C2.38530938,2.67747227 4.79743333,1.98941234 7.50016342,1.98941234 C10.2029226,1.98941234 12.6149884,2.69038903 12.6149884,3.490634 C12.6149884,4.29087896 10.1738213,4.99185565 7.50016342,4.99185565 L7.50016342,4.99185565 Z" id="Shape"></path>
                                </g>
                            </g>
                        </g>
                    </g>
                </g>
            </g>
        </g>
    </g>
</svg>