<?xml version="1.0" encoding="UTF-8" standalone="no"?>
<svg width="19px" height="19px" viewBox="0 0 19 19" version="1.1" xmlns="http://www.w3.org/2000/svg" xmlns:xlink="http://www.w3.org/1999/xlink">
    <!-- Generator: Sketch 3.8.3 (29802) - http://www.bohemiancoding.com/sketch -->
    <title>MailEvent</title>
    <desc>Created with Sketch.</desc>
    <defs></defs>
    <g id="Page-1" stroke="none" stroke-width="1" fill="none" fill-rule="evenodd">
        <g id="Users" transform="translate(-546.000000, -416.000000)">
            <g id="Base-Site-Copy" transform="translate(-10.000000, 0.000000)">
                <g id="Content" transform="translate(243.000000, 62.000000)">
                    <g id="Main-Content-Pane" transform="translate(287.000000, 223.000000)">
                        <g id="Timeline-Group" transform="translate(26.000000, 131.000000)">
                            <g id="MailEvent">
                                <circle id="Oval-8" fill="#F67600" cx="9.5" cy="9.5" r="9.5"></circle>
                                <path d="M15.1875,12.5 C15.1875,12.576125 15.1716563,12.648125 15.1489063,12.71675 L11.53125,9.125 L15.1875,6.5 L15.1875,12.5 L15.1875,12.5 Z M4.444625,13.22975 L8.110625,9.62375 L9.5,10.593125 L10.82925,9.61775 L14.555375,13.22975 C14.4972812,13.242125 4.50271875,13.242125 4.444625,13.22975 L4.444625,13.22975 Z M3.8125,12.5 L3.8125,6.5 L7.46875,9.125 L3.85109375,12.71675 C3.82834375,12.648125 3.8125,12.576125 3.8125,12.5 L3.8125,12.5 Z M14.78125,5.75 L9.5,9.5 L4.21875,5.75 L14.78125,5.75 L14.78125,5.75 Z M14.375,5 L4.625,5 C3.72759375,5 3,5.671625 3,6.5 L3,12.5 C3,13.328375 3.72759375,14 4.625,14 L14.375,14 C15.2724063,14 16,13.328375 16,12.5 L16,6.5 C16,5.671625 15.2724063,5 14.375,5 L14.375,5 Z" id="Fill-186" fill="#FFFFFF"></path>
                            </g>
                        </g>
                    </g>
                </g>
            </g>
        </g>
    </g>
</svg>