<?xml version="1.0" encoding="UTF-8" standalone="no"?>
<svg width="19px" height="19px" viewBox="0 0 19 19" version="1.1" xmlns="http://www.w3.org/2000/svg" xmlns:xlink="http://www.w3.org/1999/xlink">
    <!-- Generator: Sketch 3.8.3 (29802) - http://www.bohemiancoding.com/sketch -->
    <title>PurchaseEvent</title>
    <desc>Created with Sketch.</desc>
    <defs></defs>
    <g id="Page-1" stroke="none" stroke-width="1" fill="none" fill-rule="evenodd">
        <g id="Users" transform="translate(-546.000000, -696.000000)">
            <g id="Base-Site-Copy" transform="translate(-10.000000, 0.000000)">
                <g id="Content" transform="translate(243.000000, 62.000000)">
                    <g id="Main-Content-Pane" transform="translate(287.000000, 223.000000)">
                        <g id="Timeline-Group" transform="translate(26.000000, 131.000000)">
                            <g id="PurchaseEvent" transform="translate(0.000000, 280.000000)">
                                <circle id="Oval-8-Copy" fill="#74CCFC" cx="9.5" cy="9.5" r="9.5"></circle>
                                <path d="M14.2814113,9.36641844 C14.2814113,9.56433958 14.0992339,9.85447398 13.905811,10.0478969 L10.0553451,13.8859927 L5.11143997,8.94508632 L8.95590819,5.11298817 C9.132088,4.93680836 9.41360083,4.71152313 9.61227167,4.71152313 L13.9223044,4.71152313 C14.1206004,4.71152313 14.2814113,4.8719592 14.2814113,5.06950549 L14.2814113,9.36641844 L14.2814113,9.36641844 Z M8.95590819,14.9828057 C8.65190432,15.2853101 8.15935057,15.2853101 7.85572155,14.9828057 L4.00563057,11.1439602 C3.7016267,10.8414557 3.7016267,10.3504014 4.00563057,10.0478969 L4.56115923,9.49349281 L9.49981648,14.4400219 L8.95590819,14.9828057 L8.95590819,14.9828057 Z M14.2814113,3.99555839 L9.25316475,3.99555839 C8.85619792,3.99555839 8.78385175,4.16873939 8.40562745,4.56458167 L3.45572467,9.49949042 C2.84809178,10.1048742 2.84809178,11.0869829 3.45572467,11.6923667 L7.3054408,15.5312122 C7.9130737,16.1365959 8.89780634,16.1365959 9.50543924,15.5312122 L14.4560917,10.5963034 C14.7743399,10.2784301 15,10.1202431 15,9.72440081 L15,4.71152313 C15,4.31643055 14.6780033,3.99555839 14.2814113,3.99555839 L14.2814113,3.99555839 Z M11.9805781,8.12866161 C11.6765742,8.43116608 11.1843953,8.43116608 10.8803914,8.12866161 C10.5767624,7.82578229 10.5767624,7.33472794 10.8803914,7.03184862 C11.1843953,6.7289693 11.6765742,6.7289693 11.9805781,7.03184862 C12.2845819,7.33472794 12.2845819,7.82578229 11.9805781,8.12866161 L11.9805781,8.12866161 Z M10.3308604,6.48344213 C9.72322746,7.08920077 9.72322746,8.07093461 10.3308604,8.67669325 C10.9381184,9.2824519 11.9232259,9.2824519 12.5308588,8.67669325 C13.1381168,8.07093461 13.1381168,7.08920077 12.5308588,6.48344213 C11.9232259,5.87805833 10.9381184,5.87805833 10.3308604,6.48344213 L10.3308604,6.48344213 Z" id="Fill-87" fill="#FFFFFF"></path>
                            </g>
                        </g>
                    </g>
                </g>
            </g>
        </g>
    </g>
</svg>