<?xml version="1.0" encoding="UTF-8" standalone="no"?>
<svg width="19px" height="19px" viewBox="0 0 19 19" version="1.1" xmlns="http://www.w3.org/2000/svg" xmlns:xlink="http://www.w3.org/1999/xlink">
    <!-- Generator: Sketch 3.8.3 (29802) - http://www.bohemiancoding.com/sketch -->
    <title>SupportEvent</title>
    <desc>Created with Sketch.</desc>
    <defs></defs>
    <g id="Page-1" stroke="none" stroke-width="1" fill="none" fill-rule="evenodd">
        <g id="Users" transform="translate(-546.000000, -626.000000)">
            <g id="Base-Site-Copy" transform="translate(-10.000000, 0.000000)">
                <g id="Content" transform="translate(243.000000, 62.000000)">
                    <g id="Main-Content-Pane" transform="translate(287.000000, 223.000000)">
                        <g id="Timeline-Group" transform="translate(26.000000, 131.000000)">
                            <g id="SupportEvent" transform="translate(0.000000, 210.000000)">
                                <circle id="Oval-8-Copy" fill="#7ED321" cx="9.5" cy="9.5" r="9.5"></circle>
                                <path d="M4.95203152,14.417925 C5.55366467,15.0195582 6.2619239,15.4877598 7.07740487,15.8356348 C7.90658641,16.1966147 8.77567826,16.3699565 9.68468042,16.3699565 C10.5805777,16.3699565 11.4496696,16.1966147 12.2788511,15.8356348 C13.1080326,15.4877598 13.8162918,15.0195582 14.417925,14.417925 C15.0064533,13.8162918 15.4877598,13.1080326 15.8350391,12.2925516 C16.1966147,11.4633701 16.3699565,10.5942783 16.3699565,9.6852761 C16.3699565,8.78937881 16.1966147,7.92028696 15.8350391,7.09110543 C15.4877598,6.26251958 15.0064533,5.55366467 14.417925,4.95203152 C13.8162918,4.36350325 13.1080326,3.88219673 12.2788511,3.5349174 C11.4496696,3.17393751 10.5805777,3 9.68468042,3 C8.77567826,3 7.90658641,3.17393751 7.07740487,3.5349174 C6.2619239,3.88219673 5.55366467,4.36350325 4.95203152,4.95203152 C4.35039837,5.55366467 3.88219673,6.26251958 3.53432172,7.09110543 C3.17334183,7.92028696 3,8.78937881 3,9.6852761 C3,10.5942783 3.17334183,11.4633701 3.53432172,12.2925516 C3.88219673,13.1080326 4.35039837,13.8162918 4.95203152,14.417925 L4.95203152,14.417925 Z M4.61726139,6.99758424 L6.07488151,8.4415038 C5.92774945,8.85609457 5.86103369,9.27068533 5.86103369,9.6852761 C5.86103369,10.1129717 5.92774945,10.5275625 6.07488151,10.9415576 L4.61726139,12.3860728 C4.17646087,11.5300859 3.94891249,10.6341886 3.94891249,9.6852761 C3.94891249,8.74887282 4.17646087,7.85357121 4.61726139,6.99758424 L4.61726139,6.99758424 Z M9.68468042,6.82364673 C10.4739516,6.82364673 11.1423005,7.10480599 11.7040234,7.66593314 C12.2651505,8.22765598 12.5463098,8.89600489 12.5463098,9.6852761 C12.5463098,10.4870565 12.2651505,11.1560011 11.7040234,11.7171283 C11.1423005,12.2788511 10.4739516,12.5594147 9.68468042,12.5594147 C8.8829,12.5594147 8.21395542,12.2788511 7.65282826,11.7171283 C7.09110543,11.1560011 6.81054185,10.4870565 6.81054185,9.6852761 C6.81054185,8.89600489 7.09110543,8.22765598 7.65282826,7.66593314 C8.21395542,7.10480599 8.8829,6.82364673 9.68468042,6.82364673 L9.68468042,6.82364673 Z M8.42839892,13.295075 C8.84239401,13.4422071 9.25698478,13.5089228 9.68468042,13.5089228 C10.0992712,13.5089228 10.513862,13.4422071 10.9284527,13.295075 L12.3723723,14.7526951 C11.516981,15.1934957 10.6210837,15.421044 9.68468042,15.421044 C8.73576794,15.421044 7.83987065,15.1934957 6.98388368,14.7526951 L8.42839892,13.295075 L8.42839892,13.295075 Z M9.68468042,3.94891249 C10.6210837,3.94891249 11.516981,4.17646087 12.3723723,4.63096195 L10.9284527,6.08858207 C10.513862,5.94145 10.0992712,5.87473425 9.68468042,5.87473425 C9.25698478,5.87473425 8.84239401,5.94145 8.42839892,6.08858207 L6.98388368,4.63096195 C7.83987065,4.17646087 8.73576794,3.94891249 9.68468042,3.94891249 L9.68468042,3.94891249 Z M13.4952223,9.6852761 C13.4952223,9.27068533 13.4285065,8.85609457 13.2813745,8.4415038 L14.7389946,6.99758424 C15.1934957,7.85357121 15.421044,8.74887282 15.421044,9.6852761 C15.421044,10.6341886 15.1934957,11.5300859 14.7389946,12.3860728 L13.2813745,10.9415576 C13.4285065,10.5275625 13.4952223,10.1129717 13.4952223,9.6852761 L13.4952223,9.6852761 Z" id="Fill-1-Copy" fill="#FFFFFF"></path>
                            </g>
                        </g>
                    </g>
                </g>
            </g>
        </g>
    </g>
</svg>